<svg width="528" height="355" viewBox="0 0 528 355" fill="none" xmlns="http://www.w3.org/2000/svg">
<g clip-path="url(#clip0_3296_15013)">
<path d="M151.431 283.436C130.08 283.436 112.772 263.851 112.772 239.692C112.772 215.534 130.08 195.949 151.431 195.949C172.782 195.949 190.09 215.534 190.09 239.692C190.09 263.851 172.782 283.436 151.431 283.436Z" fill="#232132"/>
<path d="M101.807 94.135C111.097 98.1789 121.227 99.9296 131.339 99.2389C128.741 97.3903 127.074 94.4221 126.403 91.31C125.731 88.1978 125.987 84.9453 126.681 81.838C126.807 81.4833 126.8 81.0946 126.66 80.7449C126.518 80.5693 126.338 80.4278 126.133 80.3307C125.929 80.2337 125.706 80.1836 125.479 80.1841C121.563 79.6402 110.347 77.2787 107.365 80.6235C105.952 82.2085 106.493 85.2871 105.977 87.223C105.764 88.0226 103.038 94.6726 101.807 94.135Z" fill="#FBBEBE"/>
<path opacity="0.26" d="M101.807 94.135C111.097 98.1789 121.227 99.9296 131.339 99.2389C128.741 97.3903 127.074 94.4221 126.403 91.31C125.731 88.1978 125.987 84.9453 126.681 81.838C126.807 81.4833 126.8 81.0946 126.66 80.7449C126.518 80.5693 126.338 80.4278 126.133 80.3307C125.929 80.2337 125.706 80.1836 125.479 80.1841C121.563 79.6402 110.347 77.2787 107.365 80.6235C105.952 82.2085 106.493 85.2871 105.977 87.223C105.764 88.0226 103.038 94.6726 101.807 94.135Z" fill="#120707"/>
<path d="M134.447 160.539L192.547 162.323C192.547 162.323 243.944 212.264 201.486 227.425C201.486 227.425 149.196 235.897 136.682 226.087C136.682 226.087 121.039 164.552 134.447 160.539ZM137.129 177.038L199.251 181.051C199.251 181.051 194.782 165.89 176.905 165.89C159.028 165.89 138.916 161.877 137.129 171.241C135.341 180.605 137.129 177.038 137.129 177.038Z" fill="#4E4C69"/>
<path d="M180.251 152.541C183.149 152.098 186.3 151.843 188.838 153.306C189.683 153.834 190.467 154.451 191.178 155.148C192.198 156.083 193.211 157.027 194.217 157.978C194.952 158.674 195.72 159.442 195.909 160.435C196.297 162.479 193.931 164.125 191.847 164.045C189.764 163.965 187.894 162.823 185.927 162.135C181.964 160.749 167.39 163.118 166.594 158.861C165.582 153.447 177.028 153.052 180.251 152.541Z" fill="#D09B9B"/>
<path d="M153.091 149.122C156.88 151.042 161.007 152.211 165.242 152.564C165.903 152.575 166.556 152.714 167.164 152.973C167.533 153.199 167.814 153.541 167.966 153.945C169.454 157.055 170.374 160.405 170.682 163.838C170.722 164.003 170.714 164.176 170.658 164.336C170.603 164.496 170.502 164.637 170.368 164.742C169.961 164.945 169.51 165.046 169.055 165.036C162.102 165.476 155.125 165.713 148.126 165.745C147.817 165.769 147.506 165.727 147.215 165.622C147.114 165.568 147.025 165.494 146.953 165.406C146.881 165.317 146.828 165.214 146.796 165.104C145.154 161.031 144.38 156.66 144.523 152.271C144.705 147.103 146.222 145.484 153.091 149.122Z" fill="#D7E5F2"/>
<path opacity="0.1" d="M153.091 149.122C156.88 151.042 161.007 152.211 165.242 152.564C165.903 152.575 166.556 152.714 167.164 152.973C167.533 153.199 167.814 153.541 167.966 153.945C169.454 157.055 170.374 160.405 170.682 163.838C170.722 164.003 170.714 164.176 170.658 164.336C170.603 164.496 170.502 164.637 170.368 164.742C169.961 164.945 169.51 165.046 169.055 165.036C162.102 165.476 155.125 165.713 148.126 165.745C147.817 165.769 147.506 165.727 147.215 165.622C147.114 165.568 147.025 165.494 146.953 165.406C146.881 165.317 146.828 165.214 146.796 165.104C145.154 161.031 144.38 156.66 144.523 152.271C144.705 147.103 146.222 145.484 153.091 149.122Z" fill="black"/>
<path d="M75.0065 195.767L151.431 193.092L133.554 117.733C133.554 117.733 62.0457 112.383 63.8334 130.665C65.6211 148.947 75.0065 195.767 75.0065 195.767Z" fill="#232132"/>
<path d="M148.785 231.788C148.785 231.788 194.782 239.909 211.319 215.83C227.855 191.751 148.749 204.683 148.749 204.683L142.045 222.965L148.785 231.788Z" fill="#232132"/>
<path d="M162.604 333.997C151.003 333.997 141.598 324.614 141.598 313.04C141.598 301.465 151.003 292.082 162.604 292.082C174.205 292.082 183.609 301.465 183.609 313.04C183.609 324.614 174.205 333.997 162.604 333.997Z" fill="#232132"/>
<path d="M160.592 328.204C153.311 328.204 147.408 321.417 147.408 313.044C147.408 304.671 153.311 297.883 160.592 297.883C167.874 297.883 173.776 304.671 173.776 313.044C173.776 321.417 167.874 328.204 160.592 328.204Z" fill="#4E4C69"/>
<path d="M47.744 115.506C47.744 115.506 65.174 105.696 66.0679 128.883L80.8164 236.793H74.5595L57.5763 121.303C57.5763 121.303 49.0847 122.641 47.744 122.641C46.4032 122.641 47.744 115.506 47.744 115.506Z" fill="#4E4C69"/>
<path d="M30.3764 127.413C30.5358 127.985 30.8161 128.517 31.1985 128.973C31.5809 129.429 32.0565 129.798 32.5935 130.055C33.1305 130.313 33.7165 130.453 34.3121 130.466C34.9078 130.479 35.4993 130.365 36.0471 130.131L56.2666 121.506L52.5987 113.445L32.6712 122.501C31.7651 122.913 31.036 123.634 30.6153 124.534C30.1946 125.435 30.1098 126.455 30.3764 127.413Z" fill="#232132"/>
<path d="M153.219 229.212C153.219 229.212 185.397 225.645 194.336 256.413C203.274 287.18 202.38 310.813 209.978 309.03C217.576 307.246 233.665 301.003 233.665 301.003L232.324 310.367C232.324 310.367 204.168 324.636 199.699 309.475C195.229 294.315 192.548 238.576 167.073 239.914C141.598 241.252 137.129 238.576 137.129 238.576L153.219 229.212Z" fill="#4E4C69"/>
<path d="M214.447 214.492C214.447 214.492 239.475 217.614 249.307 235.896C259.139 254.178 264.056 287.175 264.056 287.175H254.67C254.67 287.175 249.307 221.627 221.151 225.194L214.447 214.492Z" fill="#4E4C69"/>
<path d="M231.43 316.608L271.206 292.083C271.206 292.083 273.441 283.165 247.966 279.598C247.966 279.598 199.802 296.404 204.443 302.716C209.084 309.027 224.726 318.837 231.43 316.608Z" fill="#232132"/>
<path d="M169.755 236.79V288.961H163.945V235.898L169.755 236.79Z" fill="#4E4C69"/>
<path d="M161.262 268.895C161.262 268.895 150.089 312.593 157.24 318.836C157.24 318.836 166.626 291.19 173.776 294.757L171.542 268.895H161.262Z" fill="#232132"/>
<path d="M117.911 86.9682C108.284 86.9682 100.481 79.1823 100.481 69.5779C100.481 59.9734 108.284 52.1875 117.911 52.1875C127.537 52.1875 135.341 59.9734 135.341 69.5779C135.341 79.1823 127.537 86.9682 117.911 86.9682Z" fill="#D09B9B"/>
<path d="M121.207 95.9344C114.099 97.1394 107.956 88.894 100.84 90.0535C99.2928 90.3696 97.8119 90.951 96.4634 91.7718C91.2219 94.7305 86.6544 98.7447 83.0515 103.559C79.4485 108.374 76.8888 113.884 75.5349 119.738C74.7307 123.315 74.4201 127.193 75.934 130.533C76.7388 132.308 78.0122 133.824 79.2854 135.302C84.0196 140.795 89.2155 146.27 95.9707 148.928C96.6304 151.208 95.997 153.677 95.2058 155.915C91.9023 165.261 97.1554 175.332 97.4233 185.238C97.4691 186.933 97.4182 188.789 98.4801 190.112C99.659 191.581 101.763 191.842 103.646 191.948C120.905 192.918 138.139 190.276 155.222 187.643C155.669 187.612 156.101 187.466 156.475 187.22C157.036 186.772 157.121 185.972 157.241 185.265C157.875 181.522 154.543 178.487 156.123 175.034C158.838 169.097 152.915 162.605 151.207 156.305C149.498 150.006 148.825 148.898 147.631 142.482C147.185 140.083 148.471 132.851 148.078 130.443C146.796 122.576 147.766 113.616 143.609 106.81C141.112 102.721 141.76 99.541 137.303 97.763C132.601 95.887 126.238 96.5186 121.207 95.9344Z" fill="#D7E5F2"/>
<path d="M199.924 199.645C205.127 200.646 210.652 201.601 214.656 205.064C217.102 207.18 218.745 210.047 220.342 212.855L236.633 241.512C241.601 250.252 246.572 258.996 251.076 267.983C251.47 268.636 251.701 269.374 251.75 270.135C251.732 271.208 251.01 272.13 250.27 272.908C247.7 275.566 244.543 277.589 241.051 278.814C237.559 280.039 233.828 280.433 230.156 279.964C229.036 274.175 223.521 270.349 220.818 265.107C219.332 262.226 218.735 258.987 217.777 255.892C214.2 244.347 205.711 235.077 197.469 226.223C193.574 222.039 189.587 217.782 184.568 215.036C178.68 211.815 171.848 210.924 165.269 209.586C158.689 208.248 151.876 206.22 147.22 201.392C145.244 199.313 143.756 196.821 142.863 194.097C141.971 191.373 141.696 188.486 142.06 185.643C146.275 185.349 150.966 184.802 155.032 186.155C159.755 187.726 164.322 189.872 169.052 191.477C179.143 194.901 189.458 197.631 199.924 199.645Z" fill="#7C7B97"/>
<path opacity="0.1" d="M199.924 199.645C205.127 200.646 210.652 201.601 214.656 205.064C217.102 207.18 218.745 210.047 220.342 212.855L236.633 241.512C241.601 250.252 246.572 258.996 251.076 267.983C251.47 268.636 251.701 269.374 251.75 270.135C251.732 271.208 251.01 272.13 250.27 272.908C247.7 275.566 244.543 277.589 241.051 278.814C237.559 280.039 233.828 280.433 230.156 279.964C229.036 274.175 223.521 270.349 220.818 265.107C219.332 262.226 218.735 258.987 217.777 255.892C214.2 244.347 205.711 235.077 197.469 226.223C193.574 222.039 189.587 217.782 184.568 215.036C178.68 211.815 171.848 210.924 165.269 209.586C158.689 208.248 151.876 206.22 147.22 201.392C145.244 199.313 143.756 196.821 142.863 194.097C141.971 191.373 141.696 188.486 142.06 185.643C146.275 185.349 150.966 184.802 155.032 186.155C159.755 187.726 164.322 189.872 169.052 191.477C179.143 194.901 189.458 197.631 199.924 199.645Z" fill="black"/>
<path d="M270.157 290.513C270.738 290.927 271.184 291.502 271.441 292.166C272.032 294.177 269.51 295.594 267.491 296.174C262.955 297.476 258.117 298.781 253.593 297.439C250.819 296.616 248.405 294.852 245.648 293.971C241.558 292.664 237.127 293.406 232.899 294.16C231.954 288.856 232.59 283.392 234.727 278.445C236.084 275.323 241.514 273.803 244.747 273.666C248.281 273.517 249.509 276.118 251.549 278.513C256.518 284.345 264.433 285.697 270.157 290.513Z" fill="#4E4C69"/>
<path d="M196.604 208.184C199.104 209.176 201.668 210.209 203.63 212.047C205.701 213.988 206.913 216.65 208.018 219.261C211.285 226.98 214.066 234.894 216.345 242.958C217.496 247.033 218.523 251.155 220.074 255.095C223.17 262.959 228.424 270.491 227.93 278.925C227.933 279.95 227.657 280.956 227.131 281.837C226.43 282.852 225.236 283.391 224.103 283.882L218.16 286.456C214.971 287.838 211.08 289.166 208.231 287.178C206.324 285.848 205.562 283.435 204.987 281.186C202.91 273.063 201.627 264.626 197.905 257.11C193.698 248.615 186.586 241.751 182.823 233.051C182.29 231.82 181.785 230.499 180.738 229.659C179.873 228.965 178.751 228.694 177.669 228.448C155.349 223.378 132.525 220.604 110.384 214.806C107.236 213.982 103.943 213.003 101.697 210.653C98.5836 207.394 98.3062 202.441 98.2065 197.94C98.1441 195.12 98.1574 192.056 99.8795 189.819C101.822 187.296 105.304 186.629 108.476 186.297C120.638 185.02 131.856 187.031 143.835 188.504C154.795 189.851 165.834 196.023 176.058 200.056C182.91 202.758 189.758 205.467 196.604 208.184Z" fill="#7C7B97"/>
<path d="M224.105 288.799C225.777 292.759 227.58 296.895 230.97 299.545C232.387 300.652 234.219 301.76 234.275 303.554C234.335 305.453 232.337 306.706 230.546 307.35C225.986 308.992 220.796 309.343 216.347 307.422C213.303 306.108 210.794 303.838 208.345 301.607C207.607 300.935 206.843 300.226 206.498 299.291C206.262 298.504 206.191 297.676 206.29 296.86C206.584 291.906 207.469 287.005 208.928 282.261C209.041 281.888 218.657 280.692 219.51 280.914C222.195 281.614 223.069 286.346 224.105 288.799Z" fill="#4E4C69"/>
<path d="M74.5594 173.918L132.66 175.702C132.66 175.702 184.056 225.643 141.598 240.804C141.598 240.804 89.3079 249.276 76.794 239.466C76.794 239.466 61.1516 177.931 74.5594 173.918ZM77.2409 190.417L139.364 194.43C139.364 194.43 134.894 179.269 117.017 179.269C99.1403 179.269 79.0286 175.256 77.2409 184.62C75.4532 193.984 77.2409 190.417 77.2409 190.417Z" fill="#4E4C69"/>
<path d="M87.7437 333.996C55.5324 333.996 29.42 304.45 29.42 268.002C29.42 231.554 55.5324 202.008 87.7437 202.008C119.955 202.008 146.067 231.554 146.067 268.002C146.067 304.45 119.955 333.996 87.7437 333.996Z" fill="#232132"/>
<path d="M85.0619 317.053C60.7491 317.053 41.0398 295.092 41.0398 268.003C41.0398 240.913 60.7491 218.953 85.0619 218.953C109.375 218.953 129.084 240.913 129.084 268.003C129.084 295.092 109.375 317.053 85.0619 317.053Z" fill="#4E4C69"/>
<path d="M73.666 267.337C73.6672 266.481 73.7526 265.628 73.9212 264.789L41.0405 248.386L43.2751 243.481L76.4898 259.626C76.8247 259.282 77.1945 258.973 77.5933 258.706L77.5678 258.711L67.8559 210.484L76.4468 210.289L82.1575 257.75L81.61 257.865C82.0537 257.956 82.4841 258.102 82.8908 258.301L111.617 228.882L115.677 234.563L86.163 261.654C86.903 263.072 87.3476 264.625 87.4698 266.22L129.085 283.167L129.979 290.301L86.6 272.099C86.1953 273.101 85.6219 274.025 84.9046 274.833L98.2468 320.177H93.3307L82.1313 276.679C81.6342 276.839 81.1155 276.921 80.5933 276.924C79.585 276.915 78.5999 276.62 77.7528 276.075L54.4482 306.8L47.2974 301.895L74.603 272.137C73.9762 270.614 73.6577 268.983 73.666 267.337Z" fill="#232132"/>
<path d="M138.167 58.5648C137.379 56.5922 134.84 55.7762 134.009 53.8217C133.114 51.7198 134.516 49.0453 133.299 47.1113C132.073 45.1627 129.215 45.3911 126.94 45.7676C124.255 46.212 121.399 46.5109 118.894 45.4476C117.779 44.9747 116.791 44.2526 115.711 43.7048C113.996 42.8369 112.087 42.4227 110.165 42.5017C109.731 42.4918 109.303 42.5939 108.92 42.798C108.557 43.0599 108.276 43.4208 108.113 43.8376C107.33 45.5311 107.218 47.6447 105.799 48.8594C105.117 49.4428 104.233 49.7178 103.417 50.0913C101.516 51.0066 99.9428 52.4817 98.9089 54.3174C97.875 56.1532 97.4305 58.2613 97.6354 60.357C97.8222 61.3276 97.9397 62.3101 97.987 63.2973C97.9315 65.4656 96.511 67.6315 97.2366 69.6761C97.776 71.1958 99.3539 72.0954 100.9 72.5639C101.34 72.7423 101.827 72.7669 102.283 72.6337C103.076 72.3131 103.234 71.2963 103.488 70.4807C103.845 69.4128 104.536 68.487 105.459 67.8384C106.381 67.1898 107.487 66.8522 108.616 66.8751C110.419 66.9515 112.243 67.9617 113.944 67.3607C114.779 67.0653 115.433 66.4207 116.102 65.839C117.639 64.5004 119.458 63.3868 121.478 63.1018C123.499 62.8169 125.737 63.4967 126.927 65.1507C127.408 65.8187 127.699 66.6051 128.157 67.2884C132.277 73.428 139.867 62.825 138.167 58.5648Z" fill="#090814"/>
<path d="M128.88 164.55C129.645 164.451 130.423 164.539 131.145 164.808C131.868 165.076 132.515 165.517 133.028 166.091C136.939 169.646 141.084 173.653 141.793 178.884C141.902 179.361 141.844 179.86 141.631 180.3C141.254 180.915 140.426 181.051 139.704 181.063C137.877 181.082 136.067 180.71 134.395 179.973C132.723 179.237 131.229 178.152 130.011 176.793C129.34 176.033 128.725 175.164 127.805 174.736C126.965 174.424 126.063 174.313 125.171 174.41C122.718 174.491 117.115 175.744 114.976 174.529C112.727 173.252 113.345 169.25 114.396 167.32C116.892 162.733 124.631 164.504 128.88 164.55Z" fill="#D09B9B"/>
<path d="M74.2914 126.022C72.7886 130.845 73.6688 136.278 71.5395 140.86C70.1262 143.902 67.4686 146.354 66.6455 149.604C65.8678 152.676 66.9096 155.986 68.7371 158.577C70.5646 161.168 73.109 163.157 75.6609 165.043C78.4553 167.108 81.357 169.122 84.6492 170.239C87.9332 171.352 91.452 171.521 94.9168 171.679L117.881 172.73L122.11 160.079L107.147 154.231C105.65 153.646 104.124 153.054 102.52 152.936C99.7504 152.731 96.3726 153.746 94.5939 151.618C94.0289 150.836 93.6696 149.925 93.5487 148.969C92.0979 141.536 93.3605 133.673 91.1268 126.437C90.0212 122.855 86.8311 115.67 82.4804 115.038C77.8695 114.368 75.3342 122.675 74.2914 126.022Z" fill="#D7E5F2"/>
</g>
<path d="M343.52 317.982L351.905 327.784C351.905 327.784 359.663 327.88 358.146 323.244C357.842 322.24 357.626 321.207 357.501 320.159C357.119 316.869 356.936 313.555 356.955 310.239C356.955 308.065 356.986 306.54 356.986 306.54C356.986 306.54 344.771 300.746 346.019 306.782C346.174 307.537 346.258 308.306 346.269 309.079C346.274 311.316 345.797 313.523 344.875 315.526C344.499 316.391 344.045 317.213 343.52 317.982Z" fill="#FFB9B9"/>
<path d="M324.062 332.743C326.906 335.367 330.54 336.769 334.275 336.685C341.191 336.579 354.113 336.358 357.113 336.223C361.128 336.031 359.795 332.321 359.667 329.765V329.511C359.618 326.949 359.146 321.398 358.346 320.531C357.545 319.664 354.805 324.393 354.805 324.393C354.805 324.393 349.454 326.083 347.982 321.015C346.51 315.947 343.521 315.458 343.521 315.458C342.163 314.822 342.096 318.645 342.096 318.645L330.771 324.968L324.125 326.094C323.912 326.199 323.719 326.308 323.537 326.415C320.531 328.24 321.863 330.683 324.062 332.743Z" fill="#090814"/>
<path d="M311.997 317.982L320.383 327.784C320.383 327.784 328.141 327.88 326.623 323.244C326.32 322.24 326.104 321.207 325.978 320.159C325.596 316.869 325.414 313.555 325.432 310.239C325.432 308.065 325.463 306.54 325.463 306.54C325.463 306.54 313.249 300.746 314.497 306.782C314.652 307.537 314.736 308.306 314.746 309.079C314.751 311.316 314.274 313.523 313.353 315.526C312.976 316.391 312.522 317.213 311.997 317.982Z" fill="#FFB9B9"/>
<path d="M292.541 332.743C295.384 335.367 299.018 336.769 302.754 336.685C309.67 336.579 322.592 336.358 325.592 336.223C329.606 336.031 328.273 332.321 328.145 329.765V329.511C328.096 326.949 327.625 321.398 326.824 320.531C326.024 319.664 323.283 324.393 323.283 324.393C323.283 324.393 317.933 326.083 316.461 321.015C314.989 315.947 311.999 315.458 311.999 315.458C310.642 314.822 310.575 318.645 310.575 318.645L299.249 324.968L292.603 326.094C292.39 326.199 292.198 326.308 292.016 326.415C289.01 328.24 290.342 330.683 292.541 332.743Z" fill="#090814"/>
<path d="M350.148 67.0117C352.678 55.6988 354.823 42.9406 350.051 32.5193C346.739 25.2874 334.489 22.855 327.467 25.4595C320.445 28.0641 315.368 35.1302 313.133 42.8345C310.899 50.5389 311.16 58.8413 312.133 66.8528C325.049 66.582 337.964 66.3134 350.148 67.0117Z" fill="#090814"/>
<path d="M320.768 82.7697L342.497 83.1196L336.17 61.391L321.818 64.6373C324.103 69.9291 323.617 76.0123 320.768 82.7697Z" fill="#FFB9B9"/>
<path d="M313.654 132.578L312.882 116.882L305.081 110.02L300.562 124.554L275.288 161.053C274.093 161.26 272.978 161.834 272.075 162.706C271.172 163.578 270.518 164.712 270.191 165.973C269.865 167.235 269.878 168.571 270.231 169.825C270.584 171.078 271.261 172.196 272.182 173.046C273.103 173.896 274.23 174.442 275.429 174.62C276.628 174.798 277.849 174.601 278.947 174.051C280.046 173.502 280.976 172.623 281.628 171.519C282.28 170.415 282.626 169.132 282.625 167.822C282.625 167.729 282.616 167.64 282.613 167.548L313.654 132.578Z" fill="#FFB9B9"/>
<path d="M335.576 65.0092C342.874 60.6896 345.557 50.7821 341.567 42.8801C337.577 34.9781 328.427 32.0739 321.129 36.3935C313.83 40.7131 311.148 50.6207 315.138 58.5227C319.127 66.4247 328.278 69.3288 335.576 65.0092Z" fill="#FFB9B9"/>
<path d="M346.764 47.3408C346.814 44.5947 346.354 41.8658 345.41 39.3163C344.467 36.7668 343.059 34.4488 341.272 32.5003C339.484 30.5517 337.352 29.0124 335.004 27.9738C332.656 26.9353 330.138 26.4187 327.602 26.4549C325.065 26.4911 322.562 27.0793 320.239 28.1845C317.917 29.2897 315.824 30.8893 314.084 32.8882C312.344 34.8871 310.994 37.2444 310.113 39.82C309.231 42.3955 308.838 45.1366 308.955 47.8803C321.845 47.9104 334.735 47.9399 346.764 47.3408Z" fill="#090814"/>
<path d="M304.17 148.944C304.17 148.944 301.719 187.484 303.049 199.241C304.378 210.998 312.991 310.751 312.991 310.751H328.187L333.027 192.636L343.376 313.665L359.461 312.215L363.647 194.033C363.647 194.033 362.642 149.245 354.475 144.754L304.17 148.944Z" fill="#090814"/>
<path d="M321.304 187.146C313.28 187.143 305.374 185.07 298.238 181.098L298.082 181.011L304.12 137.635L303.73 85.9379C303.719 84.519 303.969 83.1119 304.466 81.7989C304.963 80.4859 305.697 79.2931 306.624 78.2903C307.551 77.2874 308.653 76.4945 309.867 75.9579C311.08 75.4212 312.38 75.1515 313.69 75.1645L346.088 75.4865C347.522 75.5007 348.939 75.8344 350.249 76.4667C351.559 77.0991 352.735 78.0166 353.704 79.1622C354.672 80.3079 355.413 81.657 355.879 83.1258C356.345 84.5946 356.528 86.1516 356.414 87.6999L353.382 129.143L363.409 162.782L361.666 165.29C356.968 172.076 350.874 177.583 343.869 181.376C336.864 185.17 329.139 187.144 321.306 187.144L321.304 187.146Z" fill="white"/>
<path d="M300.472 119.765L303.866 82.2581L304.958 80.5768C305.705 79.4255 306.655 78.4453 307.753 77.6926C308.851 76.9398 310.076 76.4293 311.357 76.1904C312.638 75.9514 313.95 75.9887 315.217 76.3001C316.485 76.6115 317.683 77.1909 318.743 78.005L319.678 78.7234L318.755 116.733L300.472 119.765Z" fill="white"/>
<path d="M439.58 303.009C448.356 300.384 452.101 314.814 443.347 317.523C434.571 320.15 430.826 305.72 439.58 303.009Z" fill="#090814"/>
<path d="M390.92 321.583C399.695 318.958 403.441 333.388 394.687 336.097C385.912 338.722 382.166 324.292 390.92 321.583Z" fill="#090814"/>
<path d="M371.226 169.392L371.362 169.351L393.967 235.801L396.948 234.894L374.18 167.967C374.13 166.936 373.757 165.954 373.121 165.184C372.485 164.414 371.625 163.903 370.683 163.735C359.378 161.799 354.796 172.665 354.796 172.665L354.841 172.737L377.951 240.675L380.931 239.768L358.502 173.829C365.331 166.516 371.226 169.392 371.226 169.392Z" fill="#090814"/>
<path d="M397.134 325.32C393.909 325.289 390.777 324.145 388.194 322.053C385.611 319.961 383.713 317.031 382.775 313.689C378.461 298.399 368.281 261.765 366.93 251.822C365.175 238.877 375.072 235.194 375.29 235.117C375.556 235.02 379.535 233.814 385.041 232.146C394.402 229.309 408.547 225.023 409.066 224.77C411.258 223.944 413.584 223.619 415.897 223.812C418.211 224.005 420.462 224.714 422.511 225.894C424.623 227.096 426.487 228.751 427.99 230.758C429.493 232.765 430.603 235.082 431.253 237.568L445.813 293.657C446.712 297.095 446.46 300.767 445.102 304.024C443.744 307.281 441.368 309.914 438.391 311.458C427.157 317.302 410.679 325.098 397.354 325.319L397.134 325.32Z" fill="#6C63FF"/>
<path d="M368.822 167.096L361.502 120.801L360.686 105.176L348.853 109.372L358.832 169.99C358.43 171.17 358.334 172.447 358.556 173.682C358.779 174.916 359.31 176.061 360.093 176.99C360.876 177.92 361.879 178.598 362.994 178.952C364.109 179.305 365.292 179.32 366.414 178.994C367.536 178.669 368.554 178.016 369.356 177.106C370.158 176.196 370.714 175.065 370.963 173.837C371.211 172.608 371.143 171.329 370.766 170.14C370.388 168.95 369.716 167.896 368.822 167.092L368.822 167.096Z" fill="#FFB9B9"/>
<path d="M363.504 117.892L345.034 116.804L340.695 79.0717L341.118 78.6753C342.158 77.6985 343.366 76.9537 344.672 76.4836C345.979 76.0136 347.358 75.8277 348.731 75.9364C350.104 76.0451 351.444 76.4465 352.674 77.1173C353.903 77.7881 354.998 78.7153 355.896 79.8455L356.75 80.9214L356.763 80.9895L363.504 117.892Z" fill="white"/>
<path d="M438.716 302.205L419.839 233.026L375.449 246.609L375.184 245.593L420.501 231.727L420.638 232.227L439.652 301.906L438.716 302.205Z" fill="#3F3D56"/>
<path d="M270.201 231.052L270.186 231.055L246.655 236.155L226.413 244.981C226.152 245.095 225.872 245.152 225.59 245.149C225.308 245.146 225.029 245.083 224.769 244.964C224.51 244.844 224.274 244.67 224.077 244.452C223.879 244.234 223.724 243.976 223.618 243.693C223.593 243.626 223.572 243.558 223.552 243.489L208.765 189.877C208.609 189.322 208.652 188.724 208.885 188.201C209.117 187.678 209.523 187.269 210.021 187.054L230.633 178.067L230.648 178.064L254.179 172.963L274.421 164.137C274.683 164.023 274.962 163.966 275.244 163.969C275.527 163.972 275.805 164.035 276.065 164.155C276.324 164.274 276.56 164.448 276.757 164.666C276.955 164.884 277.111 165.142 277.216 165.426C277.241 165.492 277.263 165.56 277.282 165.629L292.069 219.241C292.225 219.796 292.182 220.395 291.949 220.917C291.717 221.44 291.311 221.849 290.813 222.064L270.201 231.052Z" fill="#6C63FF"/>
<path d="M244.95 195.039C239.554 192.977 233.977 191.172 228.374 189.671L228.093 189.596L230.937 199.908L245.429 195.222L244.95 195.039ZM231.16 199.463L228.576 190.095C233.909 191.532 239.215 193.246 244.361 195.194L231.16 199.463ZM273.226 208.979C270.714 207.442 268.167 205.969 265.583 204.562C264.87 204.174 264.155 203.792 263.437 203.413C259.062 201.108 254.619 199.007 250.11 197.11L250.057 197.087L231.789 202.994L236.778 221.08L273.564 209.185L273.226 208.979ZM237.002 220.636L232.202 203.235L250.046 197.465C254.395 199.295 258.693 201.323 262.943 203.549C263.68 203.936 264.415 204.328 265.148 204.725C267.707 206.112 270.233 207.565 272.727 209.084L237.002 220.636ZM273.226 208.979C270.714 207.442 268.167 205.969 265.583 204.562C264.87 204.174 264.155 203.792 263.437 203.413C259.062 201.108 254.619 199.007 250.11 197.11L250.057 197.087L231.789 202.994L236.778 221.08L273.564 209.185L273.226 208.979ZM237.002 220.636L232.202 203.235L250.046 197.465C254.395 199.295 258.693 201.323 262.943 203.549C263.68 203.936 264.415 204.328 265.148 204.725C267.707 206.112 270.233 207.565 272.727 209.084L237.002 220.636ZM244.952 195.039C239.556 192.977 233.979 191.172 228.376 189.671L228.095 189.596L230.939 199.908L245.431 195.222L244.952 195.039ZM231.162 199.463L228.578 190.095C233.91 191.532 239.217 193.246 244.363 195.194L231.162 199.463ZM244.952 195.039C239.556 192.977 233.979 191.172 228.376 189.671L228.095 189.596L230.939 199.908L245.431 195.222L244.952 195.039ZM231.162 199.463L228.578 190.095C233.91 191.532 239.217 193.246 244.363 195.194L231.162 199.463ZM273.228 208.979C270.716 207.442 268.169 205.969 265.585 204.562C264.872 204.174 264.157 203.792 263.439 203.413C259.064 201.108 254.621 199.007 250.112 197.11L250.059 197.087L231.789 202.994L236.778 221.08L273.564 209.185L273.228 208.979ZM237.004 220.636L232.204 203.235L250.048 197.465C254.397 199.295 258.695 201.323 262.945 203.549C263.682 203.936 264.417 204.328 265.15 204.725C267.709 206.112 270.235 207.565 272.729 209.084L237.004 220.636ZM221.955 229.236L222.049 229.579L234.557 225.535L235.928 230.507L223.421 234.551L223.515 234.894L236.337 230.747L234.777 225.09L221.955 229.236ZM240.042 232.911L241.001 236.385L241.309 236.251L240.454 233.151L289.221 217.382L289.127 217.038L240.042 232.911ZM286.812 208.638L286.717 208.295L237.629 224.167L239.189 229.825L288.276 213.954L288.181 213.61L239.412 229.38L238.039 224.405L286.812 208.638ZM250.357 193.256C242.882 190.146 235.203 187.644 227.384 185.769L226.427 182.297L226.119 182.431L227.083 185.93L227.407 186.141C235.195 188.013 242.844 190.511 250.29 193.611L250.343 193.634L280.025 184.036L279.93 183.693L250.357 193.256ZM227.678 200.589L215.171 204.634L215.265 204.977L228.088 200.831L223.346 183.64L223.038 183.774L227.678 200.589ZM280.877 187.122L254.783 195.56L255.208 195.753C259.21 197.576 263.202 199.592 267.184 201.8C267.75 202.113 268.315 202.431 268.88 202.754C271.69 204.352 274.479 206.039 277.246 207.815L277.553 207.898L285.866 205.21L285.772 204.867L277.479 207.548C274.741 205.789 271.978 204.115 269.19 202.526C268.633 202.209 268.074 201.895 267.515 201.582C263.618 199.415 259.7 197.426 255.761 195.617L280.973 187.465L280.877 187.122ZM224.366 237.979L224.461 238.322L236.967 234.277L237.918 237.726L238.226 237.592L237.189 233.832L224.366 237.979ZM216.115 208.062L216.209 208.406L228.717 204.362L233.517 221.763L221.009 225.807L221.104 226.15L233.926 222.004L228.937 203.917L216.115 208.062ZM244.95 195.039C239.554 192.977 233.977 191.172 228.374 189.671L228.093 189.596L230.937 199.908L245.429 195.222L244.95 195.039ZM231.16 199.463L228.576 190.095C233.909 191.532 239.215 193.246 244.361 195.194L231.16 199.463ZM273.226 208.979C270.714 207.442 268.167 205.969 265.583 204.562C264.87 204.174 264.155 203.792 263.437 203.413C259.062 201.108 254.619 199.007 250.11 197.11L250.057 197.087L231.789 202.994L236.778 221.08L273.564 209.185L273.226 208.979ZM237.002 220.636L232.202 203.235L250.046 197.465C254.395 199.295 258.693 201.323 262.943 203.549C263.68 203.936 264.415 204.328 265.148 204.725C267.707 206.112 270.233 207.565 272.727 209.084L237.002 220.636ZM244.952 195.039C239.556 192.977 233.979 191.172 228.376 189.671L228.095 189.596L230.939 199.908L245.431 195.222L244.952 195.039ZM231.162 199.463L228.578 190.095C233.91 191.532 239.217 193.246 244.363 195.194L231.162 199.463ZM273.228 208.979C270.716 207.442 268.169 205.969 265.585 204.562C264.872 204.174 264.157 203.792 263.439 203.413C259.064 201.108 254.621 199.007 250.112 197.11L250.059 197.087L231.789 202.994L236.778 221.08L273.564 209.185L273.228 208.979ZM237.004 220.636L232.204 203.235L250.048 197.465C254.397 199.295 258.695 201.323 262.945 203.549C263.682 203.936 264.417 204.328 265.15 204.725C267.709 206.112 270.235 207.565 272.729 209.084L237.004 220.636Z" fill="white"/>
<path d="M249.152 196.657C250.349 200.999 245.756 213.021 245.756 213.021C245.756 213.021 235.827 205.696 234.63 201.355C234.345 200.323 234.25 199.24 234.352 198.168C234.454 197.096 234.75 196.056 235.222 195.108C235.695 194.16 236.336 193.322 237.108 192.642C237.88 191.962 238.768 191.453 239.721 191.144C240.675 190.836 241.675 190.734 242.665 190.844C243.655 190.954 244.615 191.274 245.491 191.786C246.367 192.298 247.141 192.991 247.769 193.827C248.397 194.663 248.867 195.625 249.152 196.657Z" fill="#F2F2F2"/>
<path d="M245.117 197.592C245.313 198.302 245.31 199.06 245.108 199.769C244.907 200.478 244.515 201.107 243.984 201.575C243.452 202.043 242.805 202.33 242.122 202.4C241.44 202.469 240.754 202.318 240.151 201.966C239.548 201.613 239.055 201.075 238.735 200.419C238.415 199.763 238.281 199.019 238.351 198.281C238.421 197.543 238.692 196.844 239.129 196.273C239.566 195.702 240.15 195.283 240.806 195.071C241.687 194.786 242.635 194.892 243.444 195.365C244.252 195.837 244.854 196.638 245.117 197.592Z" fill="#6C63FF"/>
<path d="M246.738 218.783C247.866 218.783 248.781 217.793 248.781 216.571C248.781 215.35 247.866 214.359 246.738 214.359C245.61 214.359 244.695 215.35 244.695 216.571C244.695 217.793 245.61 218.783 246.738 218.783Z" fill="#F2F2F2"/>
<path d="M269.027 187.489L254.83 192.082C254.813 192.088 254.795 192.092 254.776 192.094L258.018 177.331C258.037 177.239 258.078 177.154 258.138 177.086C258.197 177.017 258.272 176.967 258.356 176.94C258.439 176.913 258.527 176.911 258.612 176.933C258.696 176.955 258.774 177.001 258.836 177.067L265.673 184.06L266.001 184.395L269.027 187.489Z" fill="white"/>
<path opacity="0.2" d="M269.027 187.49L264.18 189.058L265.527 184.546L265.625 184.221L265.674 184.059L266.001 184.393L269.027 187.49Z" fill="black"/>
<path d="M276.933 184.936L264.653 188.907L266 184.395L266.098 184.07L267.853 178.191C267.887 178.098 267.939 178.015 268.005 177.946C268.071 177.877 268.15 177.823 268.236 177.789C268.322 177.755 268.414 177.741 268.506 177.748C268.597 177.755 268.687 177.782 268.768 177.829C268.789 177.843 268.81 177.858 268.829 177.875L276.933 184.936Z" fill="white"/>
<defs>
<clipPath id="clip0_3296_15013">
<rect width="363" height="305" fill="white" transform="matrix(-1 0 0 1 370.2 29)"/>
</clipPath>
</defs>
</svg>
