<svg width="40" height="40" viewBox="0 0 40 40" fill="none" xmlns="http://www.w3.org/2000/svg">
<g clip-path="url(#clip0_3296_15185)">
<path d="M14.9997 1.66797V5.0013H24.9997V1.66797H28.333V5.0013H34.9997C35.4417 5.0013 35.8656 5.1769 36.1782 5.48946C36.4907 5.80202 36.6663 6.22594 36.6663 6.66797V33.3346C36.6663 33.7767 36.4907 34.2006 36.1782 34.5131C35.8656 34.8257 35.4417 35.0013 34.9997 35.0013H4.99967C4.55765 35.0013 4.13372 34.8257 3.82116 34.5131C3.5086 34.2006 3.33301 33.7767 3.33301 33.3346V6.66797C3.33301 6.22594 3.5086 5.80202 3.82116 5.48946C4.13372 5.1769 4.55765 5.0013 4.99967 5.0013H11.6663V1.66797H14.9997ZM33.333 13.3346H6.66634V31.668H33.333V13.3346ZM25.0597 16.8946L27.4163 19.2513L19.1663 27.5013L13.273 21.608L15.633 19.2513L19.168 22.788L25.0613 16.8946H25.0597Z" fill="#000091"/>
</g>
<defs>
<clipPath id="clip0_3296_15185">
<rect width="40" height="40" fill="white"/>
</clipPath>
</defs>
</svg>
