<svg width="40" height="40" viewBox="0 0 40 40" fill="none" xmlns="http://www.w3.org/2000/svg">
<g clip-path="url(#clip0_3296_15171)">
<path d="M23.3333 14.9987V6.66536H8.33333V33.332H18.4267C18.9733 34.027 19.6333 34.6404 20.3933 35.1404L22.71 36.6654H6.655C6.21636 36.6654 5.79565 36.4912 5.48533 36.1812C5.175 35.8712 5.00044 35.4507 5 35.012V4.98536C5 4.09036 5.74833 3.33203 6.67 3.33203H24.995L35 13.332V14.9987H23.3333ZM20 18.332H35V28.247C35 29.897 34.165 31.4404 32.7733 32.3554L27.5 35.8287L22.2267 32.3554C21.5444 31.9089 20.9837 31.2999 20.5951 30.583C20.2064 29.8662 20.0019 29.0641 20 28.2487V18.332ZM23.3333 28.247C23.3333 28.7737 23.6033 29.2704 24.06 29.572L27.5 31.8387L30.94 29.572C31.1615 29.4288 31.344 29.2327 31.4708 29.0014C31.5977 28.7701 31.665 28.5108 31.6667 28.247V21.6654H23.3333V28.247Z" fill="#000091"/>
</g>
<defs>
<clipPath id="clip0_3296_15171">
<rect width="40" height="40" fill="white"/>
</clipPath>
</defs>
</svg>
