<svg width="40" height="40" viewBox="0 0 40 40" fill="none" xmlns="http://www.w3.org/2000/svg">
<g clip-path="url(#clip0_3296_15178)">
<path d="M19.9997 3.33203C29.2047 3.33203 36.6663 10.7937 36.6663 19.9987C36.6663 29.2037 29.2047 36.6654 19.9997 36.6654C10.7947 36.6654 3.33301 29.2037 3.33301 19.9987H6.66634C6.66634 27.362 12.6363 33.332 19.9997 33.332C27.363 33.332 33.333 27.362 33.333 19.9987C33.333 12.6354 27.363 6.66536 19.9997 6.66536C15.4163 6.66536 11.373 8.97703 8.97468 12.4987H13.333V15.832H3.33301V5.83203H6.66634V9.9987C9.70634 5.9487 14.548 3.33203 19.9997 3.33203ZM21.6663 11.6654V19.307L27.0713 24.712L24.713 27.0704L18.333 20.687V11.6654H21.6663Z" fill="#000091"/>
</g>
<defs>
<clipPath id="clip0_3296_15178">
<rect width="40" height="40" fill="white"/>
</clipPath>
</defs>
</svg>
